<?xml version="1.0" standalone="no"?>
<!DOCTYPE svg PUBLIC "-//W3C//DTD SVG 20010904//EN"
 "http://www.w3.org/TR/2001/REC-SVG-20010904/DTD/svg10.dtd">
<svg version="1.0" xmlns="http://www.w3.org/2000/svg"
 width="700.000000pt" height="700.000000pt" viewBox="0 0 700.000000 700.000000"
 preserveAspectRatio="xMidYMid meet">
<metadata>
Created by potrace 1.11, written by Peter Selinger 2001-2013
</metadata>
<g transform="translate(0.000000,700.000000) scale(0.100000,-0.100000)"
fill="#000000" stroke="none">
<path d="M2769 6566 c-2 -2 -49 -6 -104 -9 -551 -30 -985 -580 -961 -1217 5
-123 7 -141 27 -230 6 -25 12 -52 14 -61 13 -65 76 -215 125 -300 201 -343
527 -537 885 -524 127 4 156 8 245 37 371 118 653 460 736 893 22 114 22 368
1 470 -47 219 -113 371 -227 525 -166 224 -418 376 -672 405 -28 3 -55 8 -58
10 -4 3 -9 3 -11 1z"/>
<path d="M4763 6000 c-185 -33 -386 -143 -534 -291 -319 -320 -430 -830 -269
-1239 120 -304 358 -510 655 -565 70 -14 262 -14 320 -1 205 45 393 152 541
307 57 61 154 188 154 204 0 4 8 19 19 33 10 15 31 56 45 92 15 36 30 72 35
81 14 25 59 218 65 279 9 81 9 187 1 255 -9 77 -43 222 -61 258 -8 15 -12 27
-9 27 3 0 -13 37 -36 81 -44 84 -119 188 -179 248 -106 105 -274 195 -425 227
-52 11 -268 13 -322 4z"/>
<path d="M668 5195 c-269 -57 -491 -250 -597 -518 -17 -43 -36 -99 -42 -125
-6 -26 -13 -56 -16 -67 -9 -33 -11 -295 -2 -334 4 -20 10 -52 13 -71 9 -58 55
-191 93 -265 115 -227 284 -394 503 -498 132 -61 372 -94 490 -66 25 6 50 12
55 13 98 24 217 81 295 144 389 309 446 929 127 1381 -131 186 -356 347 -547
391 -30 7 -70 16 -87 21 -48 11 -220 8 -285 -6z"/>
<path d="M6005 4203 c-60 -12 -118 -26 -130 -31 -11 -6 -54 -26 -97 -45 -242
-111 -439 -319 -545 -577 -61 -147 -81 -258 -78 -424 2 -151 21 -232 87 -371
35 -75 43 -87 98 -155 125 -154 281 -244 495 -285 36 -7 230 -8 253 -1 9 3 34
7 56 11 65 9 187 54 274 101 248 131 449 372 532 639 87 280 52 592 -91 802
-191 282 -507 406 -854 336z"/>
<path d="M3177 4075 c-1 -1 -41 -5 -88 -9 -48 -3 -93 -8 -100 -10 -8 -3 -30
-7 -49 -9 -19 -3 -57 -10 -85 -17 -27 -6 -54 -13 -60 -14 -48 -10 -201 -69
-291 -112 -106 -50 -260 -146 -335 -210 -65 -54 -225 -219 -272 -281 -40 -52
-477 -725 -541 -833 -11 -19 -24 -36 -28 -38 -4 -2 -8 -10 -8 -18 0 -8 -4 -14
-10 -14 -5 0 -10 -5 -10 -11 0 -6 -13 -29 -29 -52 -26 -38 -109 -167 -167
-259 -13 -21 -35 -55 -48 -75 -113 -178 -167 -356 -171 -566 -4 -187 25 -323
105 -492 99 -209 280 -393 487 -494 76 -37 176 -75 224 -85 109 -22 150 -27
231 -29 170 -5 280 18 506 107 150 59 274 96 397 120 77 14 110 19 220 32 69
9 284 9 375 0 97 -9 169 -20 297 -46 71 -15 269 -81 378 -125 182 -75 385
-106 540 -84 28 4 70 11 95 15 67 10 214 61 289 101 297 157 505 441 566 773
15 78 14 295 -1 375 -35 180 -82 281 -266 567 -73 114 -196 306 -272 425 -77
120 -173 270 -214 333 -41 63 -91 141 -111 173 -205 325 -455 556 -751 696
-173 81 -375 138 -551 156 -63 7 -247 13 -252 10z"/>
</g>
</svg>
