<?xml version="1.0" standalone="no"?>
<!DOCTYPE svg PUBLIC "-//W3C//DTD SVG 20010904//EN"
 "http://www.w3.org/TR/2001/REC-SVG-20010904/DTD/svg10.dtd">
<svg version="1.0" xmlns="http://www.w3.org/2000/svg"
 width="700.000000pt" height="700.000000pt" viewBox="0 0 700.000000 700.000000"
 preserveAspectRatio="xMidYMid meet">
<metadata>
Created by potrace 1.11, written by Peter Selinger 2001-2013
</metadata>
<g transform="translate(0.000000,700.000000) scale(0.100000,-0.100000)"
fill="#000000" stroke="none">
<path d="M3278 6995 c-1 -1 -39 -5 -83 -9 -254 -19 -540 -78 -805 -166 -799
-265 -1473 -811 -1908 -1546 -239 -404 -403 -890 -457 -1354 -27 -231 -27
-670 0 -831 2 -13 6 -46 9 -74 6 -54 11 -81 27 -161 5 -28 12 -64 15 -80 13
-72 67 -270 104 -383 130 -393 324 -749 589 -1081 181 -225 394 -432 615 -598
39 -29 78 -59 86 -65 49 -37 110 -77 118 -77 6 0 12 -4 14 -8 6 -16 208 -131
350 -201 247 -120 574 -236 783 -277 11 -2 54 -10 95 -19 87 -17 117 -22 179
-31 25 -3 57 -7 70 -10 196 -30 696 -25 908 10 21 4 54 9 73 11 181 23 512
115 745 207 163 65 543 259 565 288 3 4 16 13 29 20 68 35 336 239 440 335
371 338 685 771 860 1185 18 41 36 83 41 92 24 44 112 309 146 443 31 120 28
107 58 275 43 235 51 330 51 605 0 352 -24 545 -105 876 -28 114 -115 385
-130 404 -4 6 -11 21 -15 35 -10 37 -43 111 -107 242 -279 573 -738 1079
-1295 1427 -46 28 -85 51 -88 51 -3 0 -24 12 -47 26 -115 73 -381 191 -581
259 -119 40 -346 101 -452 121 -22 4 -47 9 -55 10 -8 2 -33 6 -55 9 -22 2 -51
7 -65 10 -13 2 -54 7 -90 11 -36 3 -76 8 -90 11 -27 5 -536 13 -542 8z m657
-1319 c121 -7 163 -11 245 -27 164 -31 413 -118 493 -172 15 -10 27 -16 27
-13 0 3 37 -18 83 -46 318 -196 548 -447 708 -773 57 -116 139 -344 139 -386
0 -11 4 -28 9 -37 9 -18 18 -71 36 -232 7 -57 7 -222 0 -265 -24 -155 -99
-309 -209 -423 -55 -58 -185 -143 -269 -176 -161 -63 -351 -66 -511 -9 -123
44 -196 89 -289 181 -136 133 -210 302 -222 504 -3 46 -8 94 -11 108 -20 88
-96 184 -176 223 -65 32 -83 36 -183 42 -96 6 -121 10 -202 35 -163 50 -306
159 -404 308 -65 98 -90 166 -113 298 -60 354 162 715 511 828 58 19 190 44
213 40 8 -2 65 -5 125 -8z m-1640 -469 c100 -70 121 -199 47 -294 -73 -96
-230 -104 -308 -15 -56 64 -70 143 -39 218 29 69 84 112 155 121 19 3 36 6 38
8 7 7 79 -19 107 -38z m340 -1530 c57 -32 95 -91 102 -160 l6 -57 56 -17 c31
-10 85 -32 121 -49 l65 -32 111 108 c89 87 119 110 150 116 86 18 152 -1 207
-58 49 -51 65 -114 46 -190 -10 -44 -25 -65 -119 -162 l-106 -111 25 -45 c14
-25 37 -78 51 -119 l25 -75 45 -1 c118 -5 207 -107 195 -225 -10 -96 -92 -174
-192 -183 -48 -4 -56 -9 -60 -38 -4 -28 -60 -161 -78 -185 -12 -17 -4 -28 94
-129 88 -90 110 -118 120 -157 36 -130 -59 -258 -192 -258 -74 0 -112 22 -222
131 l-103 101 -53 -28 c-30 -15 -83 -37 -119 -49 l-65 -22 -6 -50 c-15 -118
-95 -193 -208 -193 -102 0 -185 77 -199 185 l-7 56 -65 23 c-36 12 -89 35
-118 50 l-54 27 -104 -101 c-111 -108 -148 -130 -219 -130 -59 0 -105 20 -145
62 -37 38 -49 66 -57 125 -9 72 12 109 124 224 56 58 103 111 103 117 0 6 -10
28 -22 48 -12 21 -34 72 -49 113 l-27 76 -42 2 c-68 3 -130 41 -167 102 -28
46 -32 61 -29 111 3 65 30 117 79 154 42 31 73 40 149 45 10 1 19 13 23 34 4
17 25 72 48 120 l40 88 -100 102 c-115 117 -126 134 -129 201 -5 119 75 212
189 220 75 4 106 -13 221 -124 59 -58 111 -105 115 -105 3 1 37 16 74 34 38
18 90 39 117 47 l48 14 4 55 c13 150 170 234 303 162z m2494 -1312 c82 -45
124 -129 109 -215 -43 -242 -402 -215 -402 30 0 126 100 217 223 204 24 -3 56
-11 70 -19z"/>
<path d="M3745 5260 c-111 -28 -202 -113 -241 -222 -18 -52 -21 -148 -6 -203
14 -48 62 -127 100 -161 53 -49 141 -83 229 -89 151 -11 224 -27 320 -73 94
-45 144 -81 218 -156 138 -139 206 -302 219 -520 4 -65 12 -102 32 -146 54
-120 180 -202 310 -203 136 0 243 68 312 198 24 44 27 62 29 160 1 95 -5 175
-21 259 -26 135 -110 362 -166 446 -10 14 -38 57 -63 95 -51 77 -148 190 -218
251 -24 22 -50 45 -57 52 -80 75 -277 185 -422 237 -193 70 -461 104 -575 75z"/>
<path d="M2441 3063 c-205 -42 -351 -217 -356 -428 -3 -136 39 -242 134 -335
96 -95 207 -136 344 -128 327 21 522 365 373 657 -55 107 -169 200 -283 230
-63 17 -140 18 -212 4z"/>
</g>
</svg>
